<svg width="136" height="136" viewBox="0 0 136 136" fill="none" xmlns="http://www.w3.org/2000/svg">
<g clip-path="url(#clip0_117_2)">
<path d="M30.8003 67.9998C30.8003 47.4998 47.5003 30.7998 68.0003 30.7998C88.5003 30.7998 105.2 47.4998 105.2 67.9998C105.2 88.4998 88.5003 105.2 68.0003 105.2C47.5003 105.2 30.8003 88.4998 30.8003 67.9998ZM31.4003 67.9998C31.4003 88.1998 47.8003 104.6 68.0003 104.6C88.2003 104.6 104.6 88.1998 104.6 67.9998C104.6 47.7998 88.2003 31.3998 68.0003 31.3998C47.8003 31.3998 31.4003 47.7998 31.4003 67.9998Z" fill="white"/>
<path d="M28.3003 67.9998C28.3003 46.0998 46.1003 28.2998 68.0003 28.2998C89.9003 28.2998 107.7 46.0998 107.7 67.9998C107.7 89.8998 89.9003 107.7 68.0003 107.7C46.1003 107.7 28.3003 89.8998 28.3003 67.9998ZM28.9003 67.9998C28.9003 89.5998 46.5003 107.1 68.0003 107.1C89.6003 107.1 107.1 89.4998 107.1 67.9998C107.1 46.3998 89.5003 28.8998 68.0003 28.8998C46.4003 28.8998 28.9003 46.3998 28.9003 67.9998Z" fill="white"/>
<path d="M67.8001 55.8002C67.8001 54.3002 67.5001 51.6002 66.8001 49.9002C66.8001 49.8002 66.7001 49.7002 66.6001 49.7002C66.5001 49.7002 66.4001 49.7002 66.4001 49.7002C65.8001 50.0002 65.3001 50.4002 64.7001 50.9002C64.6001 51.0002 64.4001 51.0002 64.3001 50.9002C64.2001 50.8002 64.2001 50.6002 64.3001 50.5002C64.8001 50.0002 65.2001 49.4002 65.5001 48.8002C65.5001 48.7002 65.5001 48.6002 65.5001 48.6002C65.5001 48.5002 65.4001 48.4002 65.3001 48.4002C63.6001 47.7002 60.9001 47.5002 59.4001 47.5002C59.2001 47.5002 59.1001 47.4002 59.1001 47.2002C59.1001 47.0002 59.2001 46.9002 59.4001 46.9002C60.8001 46.9002 63.7001 46.7002 65.3001 45.9002C65.4001 45.9002 65.5001 45.8002 65.5001 45.7002C65.5001 45.6002 65.5001 45.6002 65.5001 45.5002C65.2001 44.9002 64.8001 44.3002 64.3001 43.8002C64.2001 43.7002 64.2001 43.5002 64.3001 43.4002C64.4001 43.3002 64.6001 43.3002 64.7001 43.4002C65.2001 43.9002 65.8001 44.3002 66.4001 44.6002C66.5001 44.6002 66.6001 44.6002 66.6001 44.6002C66.7001 44.6002 66.8001 44.5002 66.8001 44.4002C67.5001 42.8002 67.7001 40.3002 67.7001 38.5002C67.7001 38.3002 67.8001 38.2002 68.0001 38.2002C68.2001 38.2002 68.3001 38.3002 68.3001 38.5002C68.3001 40.5002 68.6001 43.0002 69.3001 44.4002C69.4001 44.6002 69.6001 44.7002 69.8001 44.6002C70.4001 44.3002 70.9001 43.9002 71.5001 43.4002C71.6001 43.3002 71.8001 43.3002 71.9001 43.4002C72.0001 43.5002 72.0001 43.7002 71.9001 43.8002C71.4001 44.3002 71.0001 44.9002 70.8001 45.4002C70.8001 45.5002 70.8001 45.6002 70.8001 45.7002C70.8001 45.8002 70.9001 45.9002 71.0001 45.9002C72.6001 46.6002 75.2001 46.9002 76.9001 46.9002C77.1001 46.9002 77.2001 47.0002 77.2001 47.2002C77.2001 47.4002 77.1001 47.5002 76.9001 47.5002C75.5001 47.5002 72.7001 47.8002 71.0001 48.5002C70.9001 48.5002 70.8001 48.6002 70.8001 48.7002C70.8001 48.8002 70.8001 48.9002 70.8001 48.9002C71.1001 49.5002 71.5001 50.0002 72.0001 50.5002C72.1001 50.6002 72.1001 50.8002 72.0001 50.9002C71.9001 51.0002 71.7001 51.0002 71.6001 50.9002C71.0001 50.4002 70.5001 50.0002 69.9001 49.7002C69.7001 49.6002 69.5001 49.7002 69.4001 49.9002C68.6001 51.8002 68.6001 54.9002 68.6001 55.8002C68.6001 56.0002 68.5001 56.1002 68.3001 56.1002C67.9001 56.1002 67.8001 56.0002 67.8001 55.8002ZM69.9001 49.1002C70.0001 49.1002 70.1001 49.2002 70.2001 49.2002C70.2001 49.1002 70.1001 49.1002 70.1001 49.0002C70.0001 48.8002 70.0001 48.5002 70.1001 48.3002C70.2001 48.1002 70.4001 47.8002 70.6001 47.7002C71.4001 47.4002 72.4001 47.1002 73.3001 46.9002C72.3001 46.7002 71.3001 46.5002 70.5001 46.2002C70.3001 46.1002 70.1001 45.9002 70.0001 45.7002C69.9001 45.5002 69.9001 45.2002 70.0001 45.0002C70.0001 45.0002 70.0001 44.9002 70.1001 44.9002C70.0001 44.9002 69.9001 45.0002 69.9001 45.0002C69.4001 45.2002 68.8001 45.0002 68.6001 44.5002C68.3001 43.8002 68.1001 43.0002 67.9001 42.1002C67.8001 42.9002 67.6001 43.8002 67.3001 44.5002C67.2001 44.7002 67.0001 44.9002 66.7001 45.0002C66.5001 45.1002 66.2001 45.1002 66.0001 45.0002C65.9001 45.0002 65.9001 44.9002 65.8001 44.9002C65.8001 45.0002 65.9001 45.1002 65.9001 45.1002C66.0001 45.3002 66.0001 45.6002 65.9001 45.8002C65.8001 46.0002 65.6001 46.2002 65.4001 46.4002C64.7001 46.7002 63.7001 47.0002 62.8001 47.1002C63.7001 47.2002 64.6001 47.5002 65.4001 47.8002C65.6001 47.9002 65.8001 48.1002 65.9001 48.3002C66.0001 48.5002 66.0001 48.8002 65.9001 49.0002C65.9001 49.1002 65.8001 49.1002 65.8001 49.2002C65.9001 49.2002 65.9001 49.1002 66.0001 49.1002C66.2001 49.0002 66.5001 49.0002 66.7001 49.1002C66.9001 49.2002 67.2001 49.4002 67.3001 49.6002C67.6001 50.3002 67.8001 51.2002 68.0001 52.1002C68.1001 51.2002 68.3001 50.3002 68.7001 49.5002C68.9001 49.1002 69.2001 48.9002 69.6001 48.9002C69.7001 49.0002 69.8001 49.1002 69.9001 49.1002Z" fill="white"/>
<path d="M92.9003 74.8998C93.1003 74.2998 93.3003 73.6998 93.3003 73.0998C93.3003 72.4998 93.1003 71.8998 92.7003 71.3998C92.3003 70.9998 91.7003 70.6998 91.1003 70.5998C90.5003 70.4998 89.8003 70.6998 89.2003 70.7998C88.0003 71.1998 86.9003 71.8998 85.9003 72.7998C85.0003 73.6998 84.1003 74.6998 83.6003 75.8998C83.4003 76.4998 83.2003 77.0998 83.2003 77.6998C83.2003 78.2998 83.4003 78.8998 83.8003 79.3998C84.2003 79.7998 84.8003 80.0998 85.4003 80.1998C86.0003 80.2998 86.7003 80.0998 87.3003 79.9998C88.5003 79.5998 89.6003 78.8998 90.6003 77.9998C91.6003 77.0998 92.4003 75.9998 92.9003 74.8998ZM87.5003 80.3998C86.8003 80.5998 86.1003 80.6998 85.4003 80.5998C84.7003 80.4998 84.0003 80.1998 83.5003 79.6998C83.0003 79.1998 82.8003 78.3998 82.8003 77.6998C82.8003 76.9998 82.9003 76.2998 83.2003 75.6998C83.7003 74.3998 84.5003 73.2998 85.5003 72.2998C86.5003 71.3998 87.7003 70.6998 89.1003 70.2998C89.8003 70.0998 90.5003 69.9998 91.2003 70.0998C91.9003 70.1998 92.6003 70.4998 93.1003 70.9998C93.6003 71.4998 93.8003 72.2998 93.8003 72.9998C93.8003 73.6998 93.7003 74.3998 93.4003 74.9998C92.9003 76.2998 92.1003 77.3998 91.1003 78.3998C90.1003 79.2998 88.9003 80.0998 87.5003 80.3998Z" fill="white"/>
<path d="M42.6002 75.1004C42.4002 74.5004 42.2002 73.8004 42.2002 73.1004C42.2002 72.4004 42.5002 71.7004 42.9002 71.1004C43.4002 70.6004 44.1002 70.3004 44.8002 70.2004C45.5002 70.1004 46.2002 70.2004 46.9002 70.4004C48.2002 70.7004 49.4002 71.5004 50.5002 72.4004C51.5002 73.3004 52.3002 74.5004 52.8002 75.8004C53.0002 76.4004 53.2002 77.1004 53.2002 77.8004C53.2002 78.5004 52.9002 79.2004 52.5002 79.8004C52.0002 80.3004 51.3002 80.6004 50.6002 80.7004C49.9002 80.8004 49.2002 80.7004 48.5002 80.5004C47.2002 80.2004 46.0002 79.4004 44.9002 78.5004C43.9002 77.5004 43.0002 76.4004 42.6002 75.1004ZM48.6002 79.9004C49.2002 80.1004 49.8002 80.2004 50.5002 80.1004C51.1002 80.0004 51.7002 79.8004 52.1002 79.3004C52.5002 78.8004 52.7002 78.2004 52.7002 77.6004C52.7002 77.0004 52.5002 76.3004 52.3002 75.8004C51.8002 74.6004 51.0002 73.6004 50.0002 72.7004C49.0002 71.8004 48.0002 71.1004 46.7002 70.7004C46.1002 70.5004 45.5002 70.4004 44.8002 70.5004C44.2002 70.6004 43.6002 70.8004 43.2002 71.3004C42.8002 71.8004 42.6002 72.4004 42.6002 73.0004C42.6002 73.6004 42.8002 74.2004 43.0002 74.8004C43.5002 76.0004 44.3002 77.0004 45.3002 77.9004C46.3002 78.8004 47.4002 79.5004 48.6002 79.9004Z" fill="white"/>
<path d="M75.1002 88.4004C74.6002 88.8004 74.0002 89.1004 73.5002 89.4004C72.9002 89.7004 72.4002 90.0004 71.8002 90.2004C70.5002 90.7004 69.3002 91.0004 68.0002 91.0004C67.8002 91.0004 67.7002 91.1004 67.7002 91.3004C67.7002 91.5004 67.8002 91.6004 68.0002 91.6004C68.7002 91.6004 69.4002 91.6004 70.0002 91.4004C70.7002 91.3004 71.3002 91.0004 71.9002 90.8004C73.1002 90.3004 74.3002 89.6004 75.2002 88.5004V88.4004H75.1002Z" fill="white"/>
<path d="M77.4002 86.1004C75.8002 86.3004 74.1002 86.1004 72.7002 85.5004C71.9002 85.2004 71.3002 84.8004 70.5002 84.4004C70.1002 84.2004 69.5002 84.1004 69.1002 84.3004C68.7002 84.5004 68.4002 84.6004 68.0002 84.6004C67.8002 84.6004 67.7002 84.7004 67.7002 84.9004C67.7002 85.1004 67.8002 85.2004 68.0002 85.2004C68.5002 85.2004 68.9002 85.0004 69.3002 84.9004C69.6002 84.8004 69.9002 84.8004 70.3002 85.0004C71.0002 85.3004 71.7002 85.8004 72.5002 86.1004C74.1002 86.7004 75.8002 86.7004 77.5002 86.6004C77.6002 86.6004 77.7002 86.5004 77.7002 86.4004C77.6002 86.1004 77.5002 86.1004 77.4002 86.1004Z" fill="white"/>
<path d="M77.3002 86.1C75.8002 86.6 74.3002 87 72.7002 87.1C71.9002 87.2 71.1002 87.2 70.4002 87.1C70.0002 87.1 69.6002 87 69.3002 86.9C68.9002 86.8 68.5002 86.7 68.0002 86.7C67.8002 86.7 67.7002 86.8 67.7002 87C67.7002 87.2 67.8002 87.3 68.0002 87.3C68.4002 87.3 68.7002 87.3 69.1002 87.5C69.5002 87.6 69.9002 87.7 70.3002 87.7C71.1002 87.8 71.9002 87.7 72.7002 87.7C74.3002 87.5 75.9002 87.1 77.4002 86.5C77.5002 86.5 77.6002 86.3 77.5002 86.2C77.6002 86.1 77.4002 86 77.3002 86.1Z" fill="white"/>
<path d="M77.1004 85.8C77.2004 86 77.3004 86.1 77.3004 86.3C77.4004 86.5 77.4004 86.7 77.6004 86.9C77.6004 87 77.7004 87 77.8004 87C77.8004 87 77.9004 87 77.9004 86.9C78.0004 86.8 78.0004 86.6 78.0004 86.5C78.0004 86.4 78.0004 86.2 77.9004 86.1C77.8004 85.8 77.6004 85.6 77.3004 85.5C77.2004 85.5 77.1004 85.5 77.1004 85.6C77.0004 85.6 77.0004 85.7 77.1004 85.8Z" fill="white"/>
<path d="M71.9004 75.6C72.5004 76.1 72.9004 76.8 72.8004 77.6C72.8004 78.3 72.3004 78.9 71.5004 79.2C71.4004 79.2 71.4004 79.3 71.4004 79.4C71.4004 79.5 71.5004 79.5 71.5004 79.5C72.0004 79.5 72.4004 79.3 72.8004 79C73.2004 78.7 73.4004 78.2 73.4004 77.7C73.4004 77.2 73.3004 76.7 73.0004 76.4C72.7004 76 72.4004 75.7 72.0004 75.5C71.9004 75.5 71.8004 75.5 71.8004 75.6C71.8004 75.5 71.8004 75.5 71.9004 75.6Z" fill="white"/>
<path d="M69.0004 81.3002C68.9004 82.1002 69.0004 83.0002 69.4004 83.8002C69.5004 83.9002 69.6004 84.0002 69.8004 83.9002C69.9004 83.8002 70.0004 83.7002 69.9004 83.5002C69.5004 82.8002 69.3004 82.0002 69.3004 81.2002C69.2004 81.2002 69.1004 81.2002 69.0004 81.3002C69.0004 81.2002 69.0004 81.2002 69.0004 81.3002Z" fill="white"/>
<path d="M71.9001 94.1998C71.7001 93.8998 71.4001 93.5998 71.1001 93.3998C70.8001 93.1998 70.5001 92.8998 70.1001 92.7998C69.4001 92.4998 68.7001 92.2998 67.9001 92.2998C67.7001 92.2998 67.6001 92.3998 67.6001 92.5998C67.6001 92.7998 67.7001 92.8998 67.9001 92.8998C69.3001 92.8998 70.6001 93.3998 71.6001 94.3998C71.6001 94.3998 71.7001 94.3998 71.8001 94.3998C72.0001 94.2998 72.0001 94.1998 71.9001 94.1998Z" fill="white"/>
<path d="M69.7002 75.2001C69.8002 75.5001 69.8002 75.7001 69.7002 76.0001C69.6002 76.3001 69.5002 76.4001 69.4002 76.6001C69.0002 76.9001 68.5002 77.0001 68.0002 77.1001C67.8002 77.1001 67.7002 77.3001 67.7002 77.4001C67.7002 77.6001 67.8002 77.7001 68.0002 77.7001C68.6002 77.7001 69.3002 77.5001 69.8002 77.0001C70.0002 76.7001 70.1002 76.4001 70.1002 76.0001C70.1002 75.7001 70.0002 75.3001 69.8002 75.1001C69.8002 75.1001 69.7002 75.0001 69.7002 75.1001C69.7002 75.1001 69.7002 75.1001 69.7002 75.2001Z" fill="white"/>
<path d="M71.3002 77.4998C70.9002 77.6998 70.6002 77.7998 70.3002 77.9998C70.0002 78.1998 69.7002 78.4998 69.5002 78.6998C69.1002 79.0998 68.6002 79.1998 68.0002 79.2998C67.8002 79.2998 67.7002 79.4998 67.7002 79.5998C67.7002 79.6998 67.8002 79.8998 68.0002 79.8998C68.3002 79.8998 68.7002 79.8998 69.1002 79.6998C69.5002 79.4998 69.8002 79.2998 69.9002 78.8998C70.1002 78.5998 70.2002 78.2998 70.4002 78.1998C70.7002 78.0998 71.0002 78.0998 71.2002 78.2998C71.4002 78.4998 71.7002 78.3998 71.9002 78.1998C72.1002 77.9998 72.0002 77.6998 71.8002 77.4998C71.7002 77.3998 71.5002 77.3998 71.3002 77.4998Z" fill="white"/>
<path d="M72 58.9001C71.3 59.8001 70.9 60.9001 70.6 61.9001C70.3 62.9001 70.1 64.0001 69.9 65.1001C69.6 67.2001 69.4 69.4001 69.6 71.6001C69.6 71.7001 69.6 71.7001 69.7 71.7001C69.7 71.7001 69.8 71.7001 69.8 71.6001C70 69.5001 70.2 67.3001 70.6 65.2001C70.8 64.1001 71 63.1001 71.3 62.1001C71.6 61.1001 72 60.1001 72.5 59.2001C72.6 59.1001 72.6 58.9001 72.4 58.8001C72.3 58.7001 72.1 58.7001 72 58.9001Z" fill="white"/>
<path d="M92.6004 58.2007C91.0004 57.2007 89.2004 56.3007 87.4004 55.7007C85.6004 55.1007 83.7004 54.6007 81.7004 54.6007C79.7004 54.7007 77.8004 55.1007 76.1004 56.0007C75.2004 56.4007 74.4004 56.9007 73.6004 57.5007C73.2004 57.8007 72.8004 58.1007 72.5004 58.4007L72.2004 58.7007L72.1004 58.8007C72.0004 58.8007 72.2004 58.7007 72.4004 58.9007C72.5004 59.1007 72.4004 59.1006 72.5004 59.1006C72.5004 59.1006 72.5004 59.1007 72.5004 59.2007C72.5004 59.1007 72.7004 58.8007 72.8004 58.7007C75.0004 55.7007 78.6004 53.7007 82.4004 53.9007C86.1004 54.1007 89.6004 56.2007 92.3004 58.7007C92.4004 58.8007 92.5004 58.8007 92.6004 58.7007C92.8004 58.5007 92.8004 58.4007 92.6004 58.2007C91.3004 56.9007 89.7004 55.7007 88.0004 54.8007C86.3004 53.9007 84.4004 53.3007 82.4004 53.2007C78.4004 53.0007 74.7004 55.1007 72.3004 58.2007C72.2004 58.4007 72.0004 58.6007 71.9004 58.9007V59.0007C71.9004 59.0007 71.9004 59.0007 72.0004 59.2007C72.2004 59.4007 72.4004 59.2007 72.3004 59.3007H72.4004L72.5004 59.2007L72.6004 59.1006L72.9004 58.9007C73.2004 58.6007 73.6004 58.3007 74.0004 58.0007C74.7004 57.4007 75.5004 57.0007 76.4004 56.6007C78.1004 55.8007 80.0004 55.4007 81.8004 55.3007C83.7004 55.3007 85.5004 55.8007 87.3004 56.4007C89.1004 57.0007 90.8004 57.8007 92.4004 58.8007C92.5004 58.9007 92.7004 58.8007 92.7004 58.7007C92.8004 58.4007 92.7004 58.3007 92.6004 58.2007Z" fill="white"/>
<path d="M60.8003 88.6C61.7003 89.6 62.9003 90.3 64.1003 90.9C64.7003 91.2 65.4003 91.4 66.0003 91.5C66.7003 91.6 67.3003 91.7 68.0003 91.7C68.2003 91.7 68.3003 91.6 68.3003 91.4C68.3003 91.2 68.2003 91.1 68.0003 91.1C66.7003 91 65.5003 90.8 64.3003 90.3C63.7003 90.1 63.1003 89.8 62.6003 89.5C62.0003 89.2 61.5003 88.9 61.0003 88.5H60.9003C60.8003 88.5 60.8003 88.5 60.8003 88.6Z" fill="white"/>
<path d="M58.6004 86.4002C60.2004 86.5002 62.0004 86.5002 63.6004 85.9002C64.4004 85.6002 65.1004 85.1002 65.8004 84.8002C66.2004 84.6002 66.4004 84.6002 66.8004 84.7002C67.1004 84.8002 67.6004 85.0002 68.1004 85.0002C68.3004 85.0002 68.4004 84.9002 68.4004 84.7002C68.4004 84.5002 68.3004 84.4002 68.1004 84.4002C67.8004 84.4002 67.5004 84.2002 67.0004 84.1002C66.5004 83.9002 66.0004 84.0002 65.6004 84.2002C64.8004 84.6002 64.2004 85.0002 63.4004 85.3002C62.0004 85.9002 60.3004 86.1002 58.7004 85.9002C58.6004 85.9002 58.5004 86.0002 58.5004 86.1002C58.4004 86.3002 58.5004 86.4002 58.6004 86.4002Z" fill="white"/>
<path d="M58.5003 86.4C60.0003 87 61.6003 87.4 63.2003 87.6C64.0003 87.7 64.8003 87.7 65.6003 87.6C66.0003 87.6 66.4003 87.5 66.8003 87.4C67.2003 87.3 67.5003 87.2 67.9003 87.2C68.1003 87.2 68.2003 87.1 68.2003 86.9C68.2003 86.7 68.1003 86.6 67.9003 86.6C67.5003 86.6 67.0003 86.7 66.6003 86.8C66.2003 86.9 65.9003 87 65.5003 87C64.7003 87.1 63.9003 87.1 63.2003 87C61.6003 86.9 60.1003 86.5 58.6003 86C58.5003 86 58.4003 86 58.3003 86.1C58.4003 86.3 58.4003 86.4 58.5003 86.4Z" fill="white"/>
<path d="M58.8001 85.5C58.4001 85.6 58.3001 85.8 58.2001 86.1C58.2001 86.2 58.1001 86.4 58.1001 86.5C58.1001 86.6 58.1001 86.8 58.2001 86.9C58.2001 87 58.3001 87 58.4001 87C58.4001 87 58.5001 87 58.5001 86.9C58.6001 86.7 58.7001 86.5 58.8001 86.3C58.9001 86.1 59.0001 85.9 59.0001 85.8V85.7C59.0001 85.6 58.9001 85.5 58.8001 85.5Z" fill="white"/>
<path d="M64.0001 75.2998C63.6001 75.4998 63.2001 75.7998 63.0001 76.1998C62.7001 76.5998 62.6001 77.0998 62.6001 77.4998C62.6001 77.9998 62.8001 78.4998 63.2001 78.7998C63.6001 79.0998 64.0001 79.2998 64.5001 79.2998C64.6001 79.2998 64.6001 79.2998 64.6001 79.1998C64.6001 79.0998 64.6001 79.0998 64.5001 79.0998C63.8001 78.7998 63.2001 78.1998 63.2001 77.4998C63.1001 76.7998 63.6001 76.0998 64.1001 75.4998C64.2001 75.3998 64.2001 75.3998 64.1001 75.2998H64.0001Z" fill="white"/>
<path d="M66.8001 81.3006C66.7001 82.1006 66.5001 82.9006 66.2001 83.6006C66.1001 83.7006 66.2001 83.9006 66.3001 84.0006C66.4001 84.1006 66.6001 84.0006 66.7001 83.9006C67.0001 83.1006 67.1001 82.2006 67.1001 81.4006C67.1001 81.3006 67.0001 81.3006 67.0001 81.3006C66.8001 81.2006 66.8001 81.2006 66.8001 81.3006Z" fill="white"/>
<path d="M64.3 94.3002C65.3 93.4002 66.7 92.9002 68 92.8002C68.2 92.8002 68.3 92.7002 68.3 92.5002C68.3 92.3002 68.2 92.2002 68 92.2002C67.2 92.2002 66.5 92.4002 65.8 92.7002C65.5 92.8002 65.1 93.1002 64.8 93.3002C64.5 93.5002 64.2 93.8002 64 94.1002C64 94.2002 64 94.2002 64 94.3002C64.2 94.4002 64.2 94.3002 64.3 94.3002Z" fill="white"/>
<path d="M66.1003 75.1C65.9003 75.4 65.8003 75.7 65.8003 76C65.8003 76.3 65.9003 76.7 66.1003 76.9C66.6003 77.4 67.2003 77.6 67.9003 77.6C68.1003 77.6 68.2003 77.5 68.2003 77.3C68.2003 77.1 68.1003 77 67.9003 77C67.4003 77 66.9003 76.8 66.5003 76.5C66.3003 76.3 66.2003 76.1 66.2003 75.9C66.1003 75.7 66.1003 75.4 66.2003 75.1C66.2003 75 66.2003 75 66.1003 75C66.2003 75 66.2003 75.1 66.1003 75.1Z" fill="white"/>
<path d="M64.7003 78.3004C65.0003 78.1004 65.3003 78.1004 65.5003 78.2004C65.8003 78.4004 65.9003 78.6004 66.0003 78.9004C66.2003 79.2004 66.5003 79.5004 66.8003 79.7004C67.2003 79.8004 67.5003 79.9004 67.9003 79.9004C68.1003 79.9004 68.2003 79.7004 68.2003 79.6004C68.2003 79.5004 68.1003 79.3004 67.9003 79.3004C67.3003 79.2004 66.8003 79.1004 66.4003 78.7004C66.2003 78.5004 65.9003 78.2004 65.6003 78.0004C65.3003 77.8004 64.9003 77.7004 64.6003 77.5004H64.5003C64.2003 77.4004 64.0003 77.5004 63.9003 77.8004C63.8003 78.1004 63.9003 78.3004 64.2003 78.4004C64.4003 78.4004 64.6003 78.4004 64.7003 78.3004Z" fill="white"/>
<path d="M63.5003 59.2002C64.1003 60.0002 64.4003 61.0002 64.7003 62.1002C65.0003 63.1002 65.2003 64.2002 65.4003 65.2002C65.8003 67.3002 66.0003 69.4002 66.2003 71.6002C66.2003 71.7002 66.2003 71.7002 66.3003 71.7002C66.3003 71.7002 66.4003 71.7002 66.4003 71.6002C66.5003 69.4002 66.4003 67.3002 66.1003 65.1002C65.9003 64.0002 65.7003 63.0002 65.4003 61.9002C65.1003 60.9002 64.7003 59.8002 64.0003 58.9002C63.9003 58.8002 63.7003 58.7002 63.6003 58.8002C63.4003 58.9002 63.4003 59.1002 63.5003 59.2002Z" fill="white"/>
<path d="M43.6 58.6006C45.2 57.6006 46.9 56.8007 48.7 56.2007C50.5 55.6007 52.3 55.1007 54.2 55.1007C56 55.2006 57.9 55.6007 59.6 56.4007C60.4 56.8007 61.3 57.3007 62 57.8007C62.4 58.1007 62.7 58.4007 63.1 58.7007L63.4 58.9007L63.5 59.0007C63.5 59.0007 63.5 59.0006 63.6 59.1006H63.7C63.6 59.1006 63.8 59.2007 64 59.0007V58.9007C63.9 58.6007 63.7 58.4007 63.6 58.2007C61.3 55.1007 57.5 53.0007 53.5 53.2007C51.6 53.3007 49.7 53.9007 47.9 54.8007C46.2 55.7007 44.6 56.9007 43.2 58.2007C43.1 58.3007 43.1 58.4007 43.2 58.5007C43.4 58.7007 43.6 58.7006 43.6 58.6006C46.3 56.0006 49.8 54.0007 53.5 53.7007C57.2 53.5007 60.9 55.5007 63.1 58.5007C63.2 58.7007 63.4 58.9007 63.4 59.0007C63.4 59.0007 63.4 59.0007 63.4 58.9007C63.4 58.9007 63.4 58.9007 63.5 58.7007C63.7 58.5007 63.9 58.7006 63.8 58.6006L63.7 58.5007L63.4 58.2007C63 57.9007 62.7 57.5007 62.3 57.3007C61.5 56.7007 60.7 56.2007 59.8 55.8007C58 55.0007 56.1 54.5007 54.2 54.4007C52.2 54.4007 50.3 54.9007 48.5 55.5007C46.7 56.2007 45 57.0007 43.3 58.0007C43.2 58.1007 43.2 58.2007 43.2 58.3007C43.4 58.7007 43.5 58.7006 43.6 58.6006Z" fill="white"/>
<path d="M89.8 63.7001C89.2 63.4001 88.4 63.5001 87.8 63.7001C87.2 63.9001 86.6 64.2001 86 64.5001C84.8 65.0001 83.6 65.4001 82.4 65.3001C81.1 65.3001 79.9 64.9001 78.6 64.7001C78 64.6001 77.3 64.5001 76.6 64.7001C75.9 64.9001 75.4 65.4001 75 66.0001V66.1001H75.1C75.5 65.6001 76.1 65.3001 76.6 65.1001C77.2 65.0001 77.8 65.1001 78.4 65.2001C79.6 65.5001 80.9 65.8001 82.3 65.8001C83.6 65.9001 85 65.5001 86.2 64.9001C87.4 64.4001 88.4 63.5001 89.7 63.8001C89.8 63.8001 89.8 63.8001 89.8 63.7001C89.9 63.7001 89.9 63.7001 89.8 63.7001Z" fill="white"/>
<path d="M90.6999 66.1996C89.7999 66.2996 88.8999 66.1996 88.0999 65.9996C87.6999 65.8996 87.2999 65.6996 86.8999 65.4996C86.4999 65.2996 86.1999 65.0996 85.9999 64.7996C85.8999 64.6996 85.6999 64.5996 85.5999 64.6996C85.4999 64.7996 85.3999 64.9996 85.4999 65.0996C85.8999 65.4996 86.2999 65.6996 86.6999 65.8996C87.0999 66.0996 87.5999 66.1996 87.9999 66.2996C88.8999 66.4996 89.7999 66.4996 90.6999 66.2996C90.6999 66.3996 90.7999 66.3996 90.6999 66.1996Z" fill="white"/>
<path d="M93.2002 64.6C92.7002 64.8 92.2002 64.9 91.7002 65C91.2002 65.1 90.7002 65.1 90.1002 65C89.1002 64.9 88.0002 64.6 87.2002 64.1C87.1002 64 86.9002 64.1 86.8002 64.2C86.7002 64.3 86.8002 64.5 86.9002 64.6C87.9002 65.2 89.0002 65.4 90.1002 65.4C90.6002 65.4 91.2002 65.4 91.7002 65.2C92.2002 65.1 92.8002 64.9 93.2002 64.7V64.6Z" fill="white"/>
<path d="M92.1 64.3002C91.4 64.5002 90.6 64.6002 89.9 64.5002C89.2 64.4002 88.5 64.2002 87.9 63.8002C87.8 63.7002 87.6 63.8002 87.6 63.9002C87.5 64.0002 87.6 64.2002 87.7 64.2002C88.4 64.5002 89.2 64.7002 89.9 64.8002C90.7 64.8002 91.4 64.7002 92.1 64.4002C92.2 64.4002 92.2 64.3002 92.1 64.3002C92.2 64.3002 92.1 64.2002 92.1 64.3002Z" fill="white"/>
<path d="M84.7002 65.3994C85.2002 65.9994 86.0002 66.3994 86.7002 66.5994C87.4002 66.7994 88.2002 66.8994 88.9002 66.8994C88.9002 66.8994 89.0002 66.8994 89.0002 66.7994C89.0002 66.7994 89.0002 66.6994 88.9002 66.6994C88.2002 66.6994 87.4002 66.4994 86.8002 66.1994C86.1002 65.8994 85.5002 65.4994 85.1002 64.9994C85.0002 64.8994 84.9002 64.8994 84.7002 64.8994C84.7002 65.0994 84.6002 65.2994 84.7002 65.3994Z" fill="white"/>
<path d="M83.8002 65.5996C84.2002 66.1996 84.7002 66.5996 85.3002 66.8996C85.9002 67.1996 86.5002 67.4996 87.1002 67.4996C87.1002 67.4996 87.2002 67.4996 87.2002 67.3996C87.2002 67.3996 87.2002 67.2996 87.1002 67.2996C86.5002 67.1996 85.9002 66.8996 85.4002 66.5996C84.9002 66.1996 84.4002 65.7996 84.2002 65.2996C84.1002 65.1996 84.0002 65.0996 83.9002 65.1996C83.8002 65.2996 83.7002 65.3996 83.8002 65.5996Z" fill="white"/>
<path d="M82.7001 65.6998C83.0001 66.0998 83.3001 66.4998 83.6001 66.7998C83.9001 67.0998 84.3001 67.3998 84.8001 67.5998H84.9001V67.4998C84.5001 67.1998 84.2001 66.8998 83.9001 66.5998C83.6001 66.2998 83.4001 65.8998 83.2001 65.4998C83.1001 65.3998 83.0001 65.2998 82.8001 65.3998C82.7001 65.3998 82.6001 65.5998 82.7001 65.6998Z" fill="white"/>
<path d="M82.1001 65.6998C82.2001 66.0998 82.4001 66.2998 82.6001 66.5998C82.8001 66.8998 83.0001 67.0998 83.3001 67.2998H83.4001V67.1998C83.0001 66.6998 82.7001 66.0998 82.6001 65.4998C82.6001 65.3998 82.4001 65.2998 82.3001 65.2998C82.2001 65.3998 82.1001 65.4998 82.1001 65.6998Z" fill="white"/>
<path d="M80.8002 65.5998C81.1002 66.2998 81.5002 66.8998 82.1002 67.1998H82.2002V67.0998C81.7002 66.6998 81.4002 66.0998 81.2002 65.4998C81.2002 65.3998 81.0002 65.2998 80.9002 65.2998C80.8002 65.2998 80.7002 65.3998 80.8002 65.5998C80.8002 65.4998 80.8002 65.4998 80.8002 65.5998Z" fill="white"/>
<path d="M80.1001 65.4002C80.2001 65.7002 80.3001 65.9002 80.4001 66.2002C80.5001 66.4002 80.7001 66.6002 80.9001 66.8002H81.0001V66.7002C80.8001 66.5002 80.7001 66.3002 80.6001 66.1002C80.5001 65.9002 80.4001 65.6002 80.4001 65.4002C80.4001 65.3002 80.3001 65.2002 80.2001 65.2002C80.1001 65.2002 80.1001 65.3002 80.1001 65.4002Z" fill="white"/>
<path d="M79 65.0994C79 65.3994 79.1 65.5994 79.2 65.7994C79.3 65.9994 79.5 66.1994 79.7 66.2994H79.8V66.1994C79.5 65.8994 79.4 65.3994 79.4 65.0994C79.4 64.9994 79.3 64.8994 79.2 64.8994C79.1 64.8994 79 64.9994 79 65.0994Z" fill="white"/>
<path d="M89.7 65.5998C89.1 65.5998 88.6 65.4998 88 65.2998C87.5 65.0998 86.9 64.8998 86.6 64.4998C86.5 64.3998 86.3 64.3998 86.2 64.4998C86.1 64.5998 86.1 64.7998 86.2 64.8998C86.7 65.3998 87.3 65.5998 87.9 65.6998C88.5 65.7998 89.1 65.8998 89.7 65.7998C89.7 65.6998 89.7 65.6998 89.7 65.5998Z" fill="white"/>
<path d="M87.4 61.6998C86.7 61.1998 85.9 60.7998 85.1 60.5998C84.3 60.3998 83.4 60.2998 82.5 60.2998C81.6 60.3998 80.8 60.5998 80 60.9998C79.2 61.3998 78.6 61.8998 78 62.4998V62.5998C78 62.5998 78 62.5998 78.1 62.5998C78.8 62.1998 79.5 61.6998 80.3 61.4998C81 61.1998 81.8 60.9998 82.6 60.9998C83.4 60.8998 84.2 60.9998 85 61.0998C85.8 61.2998 86.6 61.4998 87.4 61.6998C87.4 61.7998 87.4 61.7998 87.4 61.6998Z" fill="white"/>
<path d="M46.3 63.9007C47.5 63.6007 48.6 64.5007 49.8 65.0007C51 65.6007 52.3 65.9007 53.7 65.9007C55 65.9007 56.3 65.5007 57.6 65.3007C58.2 65.2007 58.9 65.1007 59.4 65.2007C60 65.3007 60.5 65.7007 60.9 66.2007H61V66.1007C60.6 65.5007 60.1 65.1007 59.4 64.8007C58.7 64.6007 58 64.7007 57.4 64.8007C56.1 65.0007 54.9 65.4007 53.6 65.4007C52.3 65.5007 51.1 65.1007 50 64.6007C49.4 64.3007 48.8 64.0007 48.2 63.8007C47.6 63.6007 46.8 63.5007 46.2 63.8007C46.1 63.8007 46.1 63.9007 46.2 63.9007C46.2 63.8007 46.2 63.9007 46.3 63.9007Z" fill="white"/>
<path d="M45.3003 66.4006C46.2003 66.6006 47.1003 66.5006 48.0003 66.4006C48.4003 66.3006 48.9003 66.2006 49.3003 66.0006C49.7003 65.8006 50.1003 65.6006 50.5003 65.2006C50.6003 65.1006 50.6003 64.9006 50.5003 64.8006C50.4003 64.7006 50.2003 64.7006 50.1003 64.8006C49.9003 65.1006 49.5003 65.3006 49.2003 65.5006C48.8003 65.7006 48.4003 65.9006 48.0003 66.0006C47.2003 66.2006 46.3003 66.3006 45.4003 66.2006C45.3003 66.2006 45.2003 66.3006 45.3003 66.4006Z" fill="white"/>
<path d="M42.7002 64.6999C43.2002 64.9999 43.7002 65.0999 44.2002 65.1999C44.7002 65.2999 45.3002 65.3999 45.8002 65.3999C46.9002 65.3999 48.0002 65.0999 49.0002 64.5999C49.1002 64.4999 49.2002 64.3999 49.1002 64.1999C49.1002 63.9999 49.0002 63.9999 48.8002 64.0999C47.9002 64.5999 46.9002 64.9999 45.9002 64.9999C45.4002 64.9999 44.9002 64.9999 44.3002 64.9999C43.8002 64.8999 43.2002 64.7999 42.8002 64.5999C42.8002 64.5999 42.7002 64.5999 42.7002 64.6999Z" fill="white"/>
<path d="M43.9002 64.4002C44.6002 64.6002 45.4002 64.8002 46.1002 64.8002C46.9002 64.8002 47.6002 64.6002 48.3002 64.2002C48.4002 64.1002 48.5002 64.0002 48.4002 63.9002C48.3002 63.8002 48.2002 63.7002 48.1002 63.8002C47.5002 64.1002 46.8002 64.4002 46.1002 64.5002C45.4002 64.6002 44.6002 64.5002 43.9002 64.3002C43.9002 64.2002 43.8002 64.3002 43.9002 64.4002C43.8002 64.4002 43.8002 64.3002 43.9002 64.4002Z" fill="white"/>
<path d="M50.8004 65.1002C50.4004 65.6002 49.8004 66.0002 49.1004 66.3002C48.4004 66.6002 47.7004 66.8002 47.0004 66.8002C47.0004 66.8002 46.9004 66.8002 46.9004 66.9002C46.9004 66.9002 46.9004 67.0002 47.0004 67.0002C47.8004 67.0002 48.5004 66.9002 49.2004 66.7002C49.9004 66.5002 50.6004 66.1002 51.2004 65.5002C51.3004 65.4002 51.3004 65.2002 51.2004 65.1002C51.1004 64.9002 51.0004 64.9002 50.8004 65.1002C50.9004 65.1002 50.9004 65.1002 50.8004 65.1002Z" fill="white"/>
<path d="M51.7002 65.3C51.5002 65.8 51.0002 66.2 50.5002 66.6C50.0002 66.9 49.4002 67.2 48.8002 67.3C48.8002 67.3 48.7002 67.3 48.7002 67.4C48.7002 67.4 48.7002 67.5 48.8002 67.5C49.5002 67.5 50.1002 67.2 50.6002 66.9C51.2002 66.6 51.7002 66.2 52.1002 65.6C52.2002 65.5 52.1002 65.3 52.0002 65.3C52.0002 65.1 51.8002 65.2 51.7002 65.3C51.8002 65.3 51.8002 65.3 51.7002 65.3Z" fill="white"/>
<path d="M52.8001 65.4998C52.6001 65.8998 52.4001 66.2998 52.1001 66.5998C51.8001 66.9998 51.5001 67.2998 51.1001 67.4998C51.1001 67.4998 51.0001 67.5998 51.1001 67.5998C51.1001 67.5998 51.2001 67.6998 51.2001 67.5998C51.6001 67.3998 52.0001 67.0998 52.4001 66.7998C52.7001 66.4998 53.1001 66.0998 53.3001 65.6998C53.4001 65.5998 53.3001 65.3998 53.2001 65.2998C53.1001 65.2998 52.9001 65.2998 52.8001 65.4998Z" fill="white"/>
<path d="M53.4001 65.4998C53.3001 66.0998 53.0001 66.6998 52.6001 67.1998V67.2998H52.7001C53.0001 67.0998 53.2001 66.7998 53.4001 66.5998C53.6001 66.2998 53.8001 65.9998 53.9001 65.6998C53.9001 65.5998 53.9001 65.3998 53.7001 65.3998C53.6001 65.2998 53.4001 65.3998 53.4001 65.4998Z" fill="white"/>
<path d="M54.8003 65.4002C54.6003 66.0002 54.3003 66.6002 53.8003 67.0002C53.8003 67.0002 53.7003 67.1002 53.8003 67.1002C53.8003 67.1002 53.9003 67.2002 53.9003 67.1002C54.5003 66.7002 54.9003 66.1002 55.2003 65.5002C55.3003 65.4002 55.2003 65.2002 55.1003 65.2002C55.0003 65.2002 54.9003 65.3002 54.8003 65.4002Z" fill="white"/>
<path d="M55.5004 65.4006C55.5004 65.6006 55.4004 65.9006 55.3004 66.1006C55.2004 66.3006 55.1004 66.5006 54.9004 66.7006V66.8006H55.0004C55.2004 66.6006 55.4004 66.4006 55.5004 66.2006C55.6004 66.0006 55.8004 65.7006 55.8004 65.4006C55.8004 65.3006 55.8004 65.2006 55.6004 65.1006C55.6004 65.2006 55.5004 65.2006 55.5004 65.4006Z" fill="white"/>
<path d="M56.6002 65.1004C56.6002 65.4004 56.4002 65.9004 56.2002 66.2004V66.3004H56.3002C56.5002 66.2004 56.7002 66.0004 56.8002 65.8004C56.9002 65.6004 57.0002 65.4004 57.0002 65.1004C57.0002 65.0004 56.9002 64.9004 56.8002 64.9004C56.7002 64.9004 56.6002 64.9004 56.6002 65.1004Z" fill="white"/>
<path d="M46.3003 65.7002C46.9003 65.7002 47.5003 65.7002 48.1003 65.6002C48.7003 65.5002 49.3003 65.3002 49.8003 64.8002C49.9003 64.7002 49.9003 64.5002 49.8003 64.4002C49.7003 64.3002 49.5003 64.3002 49.4003 64.4002C49.1003 64.8002 48.6003 65.0002 48.0003 65.2002C47.5003 65.4002 46.9003 65.5002 46.3003 65.5002C46.3003 65.6002 46.3003 65.6002 46.3003 65.7002Z" fill="white"/>
<path d="M48.6004 61.8002C49.4004 61.5002 50.1004 61.2002 50.9004 61.1002C51.7004 61.0002 52.5004 60.9002 53.3004 61.0002C54.1004 61.0002 54.9004 61.2002 55.6004 61.5002C56.4004 61.8002 57.0004 62.2002 57.8004 62.6002H57.9004V62.5002C57.3004 61.9002 56.7004 61.3002 55.9004 61.0002C55.1004 60.6002 54.3004 60.4002 53.4004 60.3002C52.5004 60.2002 51.7004 60.3002 50.8004 60.6002C50.0004 60.8002 49.2004 61.2002 48.6004 61.8002C48.5004 61.8002 48.5004 61.8002 48.6004 61.8002Z" fill="white"/>
<path d="M61.2002 29.3998C61.3002 29.3998 61.4002 29.3998 61.4002 29.2998C62.3002 28.2998 63.7002 26.0998 63.6002 22.5998C63.5002 20.5998 62.8002 18.9998 62.0002 17.3998C61.2002 15.6998 60.3002 13.8998 60.3002 11.4998C60.3002 6.7998 63.1002 3.5998 65.0002 1.8998C64.0002 3.2998 63.0002 5.3998 62.8002 7.6998C62.7002 10.8998 63.9002 12.6998 65.4002 14.7998C65.9002 15.5998 66.5002 16.3998 67.1002 17.2998C69.1002 20.7998 70.7002 23.8998 70.1002 28.3998C70.1002 28.5998 70.2002 28.6998 70.4002 28.6998C70.6002 28.6998 70.7002 28.5998 70.7002 28.3998C71.3002 23.6998 69.8002 20.4998 67.6002 16.8998C67.0002 15.8998 66.5002 15.0998 65.9002 14.2998C64.4002 12.1998 63.2002 10.4998 63.4002 7.4998C63.6002 3.4998 66.8002 0.299805 66.9002 0.199805C67.0002 0.0998047 67.0002 -0.100195 66.9002 -0.200195C66.9002 -0.00019531 66.8002 -0.00019531 66.6002 -0.00019531C66.5002 -0.00019531 59.8002 3.9998 59.7002 11.3998C59.7002 13.8998 60.6002 15.6998 61.4002 17.4998C62.2002 19.0998 62.9002 20.5998 62.9002 22.4998C63.0002 25.7998 61.6002 27.7998 60.8002 28.6998C60.7002 28.7998 60.7002 28.9998 60.8002 29.0998C61.0002 29.2998 61.1002 29.3998 61.2002 29.3998Z" fill="white"/>
<path d="M76.5001 29.7994C76.7001 29.7994 76.8001 29.6994 76.8001 29.4994L76.5001 11.1994C76.5001 11.0994 76.4001 10.8994 76.2001 10.8994C76.1001 10.8994 75.9001 10.9994 75.9001 11.0994L70.6001 28.5994C70.6001 28.7994 70.6001 28.8994 70.8001 28.9994C70.9001 28.9994 71.1001 28.9994 71.2001 28.7994L76.0001 13.0994L76.2001 29.4994C76.2001 29.6994 76.3001 29.7994 76.5001 29.7994Z" fill="white"/>
<path d="M73.9001 29.1994C74.0001 29.1994 74.2001 29.0994 74.2001 28.8994L76.5001 11.1994C76.5001 10.9994 76.4001 10.8994 76.2001 10.8994C76.0001 10.8994 75.9001 10.9994 75.9001 11.1994L73.6001 28.8994C73.6001 29.0994 73.7001 29.1994 73.9001 29.1994Z" fill="white"/>
<path d="M85.4003 32.8002C85.5003 32.8002 85.6003 32.7002 85.7003 32.7002C88.1003 28.6002 87.8003 25.1002 87.3003 20.9002C87.2003 19.8002 86.9003 18.8002 86.7003 17.9002C86.1003 15.4002 85.7003 13.4002 87.0003 10.7002C88.7003 7.1002 92.9003 5.3002 93.0003 5.3002C93.0003 5.2002 93.1003 5.0002 93.1003 4.9002C93.1003 4.8002 92.9003 4.7002 92.8003 4.7002C92.7003 4.7002 85.0003 5.8002 82.1003 12.6002C81.1003 14.9002 81.2003 17.0002 81.3003 18.9002C81.4003 20.7002 81.5003 22.3002 80.8003 24.1002C79.6003 27.3002 77.4003 28.6002 76.5003 29.1002C76.4003 29.2002 76.3003 29.3002 76.4003 29.5002C76.5003 29.6002 76.7003 29.7002 76.8003 29.6002C77.8003 29.1002 80.1003 27.7002 81.4003 24.3002C82.1003 22.4002 82.0003 20.6002 81.9003 18.9002C81.8003 17.0002 81.7003 15.0002 82.6003 12.8002C84.4003 8.5002 88.2003 6.6002 90.6003 5.8002C89.2003 6.7002 87.4003 8.2002 86.4003 10.4002C85.1003 13.3002 85.5003 15.4002 86.1003 18.0002C86.3003 18.9002 86.5003 19.9002 86.7003 21.0002C87.2003 25.0002 87.5003 28.4002 85.2003 32.4002C85.1003 32.5002 85.2003 32.7002 85.3003 32.8002C85.3003 32.8002 85.3003 32.8002 85.4003 32.8002Z" fill="white"/>
<path d="M90.6003 35.9002C90.7003 35.9002 90.8003 35.8002 90.9003 35.7002L97.6003 18.7002C97.7003 18.6002 97.6003 18.4002 97.5003 18.3002C97.4003 18.2002 97.2003 18.3002 97.1003 18.4002L85.5003 32.6002C85.4003 32.7002 85.4003 32.9002 85.5003 33.0002C85.6003 33.1002 85.8003 33.1002 85.9003 33.0002L96.3003 20.3002L90.3003 35.5002C90.2003 35.7002 90.3003 35.8002 90.5003 35.9002C90.5003 35.9002 90.5003 35.9002 90.6003 35.9002Z" fill="white"/>
<path d="M88.4005 34.5004C88.5005 34.5004 88.6005 34.4004 88.7005 34.4004L97.6005 18.9004C97.7005 18.8004 97.6005 18.6004 97.5005 18.5004C97.4005 18.4004 97.2005 18.5004 97.1005 18.6004L88.1005 34.0004C88.0005 34.1004 88.1005 34.3004 88.2005 34.4004C88.3005 34.4004 88.3005 34.5004 88.4005 34.5004Z" fill="white"/>
<path d="M97.6004 42.1996C97.7004 42.1996 97.7004 42.1996 97.8004 42.0996C101.6 39.1996 102.7 35.8996 103.8 31.7996C104.1 30.6996 104.3 29.6996 104.4 28.7996C104.9 26.1996 105.2 24.1996 107.4 22.1996C110.3 19.4996 114.9 19.4996 115 19.4996C115.1 19.4996 115.3 19.3996 115.3 19.1996C115.3 19.0996 115.2 18.8996 115.1 18.8996C115 18.8996 107.4 16.8996 102.1 22.0996C100.3 23.8996 99.6004 25.7996 99.0004 27.6996C98.4004 29.3996 97.9004 30.8996 96.6004 32.2996C94.3004 34.7996 91.7004 35.1996 90.7004 35.1996C90.5004 35.1996 90.4004 35.2996 90.4004 35.4996C90.4004 35.6996 90.5004 35.7996 90.7004 35.7996C92.0004 35.6996 94.6004 35.1996 97.0004 32.6996C98.4004 31.1996 99.0004 29.4996 99.6004 27.8996C100.2 26.0996 100.9 24.1996 102.6 22.5996C105.9 19.2996 110.2 18.9996 112.7 19.1996C111 19.4996 108.8 20.1996 107.1 21.7996C104.8 23.8996 104.4 26.0996 103.9 28.6996C103.7 29.5996 103.6 30.5996 103.3 31.6996C102.3 35.5996 101.2 38.8996 97.5004 41.6996C97.4004 41.7996 97.3004 41.9996 97.4004 42.0996C97.5004 42.0996 97.5004 42.1996 97.6004 42.1996Z" fill="white"/>
<path d="M101.201 46.9992C101.301 46.9992 101.401 46.9992 101.401 46.8992L114.101 33.7992C114.201 33.6992 114.201 33.4992 114.101 33.3992C114.001 33.2992 113.901 33.1992 113.701 33.2992L97.7005 41.9992C97.6005 42.0992 97.5005 42.2992 97.6005 42.3992C97.7005 42.4992 97.9005 42.5992 98.0005 42.4992L112.401 34.7992L101.001 46.4992C100.901 46.5992 100.901 46.7992 101.001 46.8992C101.101 46.9992 101.101 46.9992 101.201 46.9992Z" fill="white"/>
<path d="M99.8004 44.7992C99.9004 44.7992 99.9004 44.7992 100 44.6992L114.2 33.7992C114.3 33.6992 114.4 33.4992 114.3 33.3992C114.2 33.2992 114 33.1992 113.9 33.2992L99.6004 44.2992C99.5004 44.3992 99.4004 44.5992 99.5004 44.6992C99.6004 44.7992 99.7004 44.7992 99.8004 44.7992Z" fill="white"/>
<path d="M105.4 55.5001C110.1 54.2001 112.4 51.6001 114.9 48.3001C115.6 47.4001 116.1 46.6001 116.6 45.8001C118 43.6001 119.1 41.9001 121.9 40.9001C125.6 39.6001 129.9 41.3001 129.9 41.3001C130 41.4001 130.2 41.3001 130.3 41.2001C130.4 41.1001 130.3 40.9001 130.2 40.8001C130.1 40.7001 123.9 36.0001 117 38.8001C114.7 39.7001 113.3 41.3001 112 42.7001C110.8 44.0001 109.7 45.3001 108 46.0001C104.9 47.4001 102.4 46.8001 101.4 46.5001C101.2 46.4001 101.1 46.5001 101 46.7001C100.9 46.9001 101 47.0001 101.2 47.1001C102.2 47.4001 104.9 48.1001 108.2 46.6001C110 45.8001 111.2 44.4001 112.4 43.1001C113.7 41.7001 115 40.2001 117.2 39.3001C121.5 37.5001 125.6 38.9001 127.9 40.0001C126.2 39.7001 123.9 39.4001 121.7 40.2001C118.7 41.3001 117.5 43.2001 116.1 45.4001C115.6 46.2001 115.1 47.0001 114.4 47.9001C111.9 51.1001 109.7 53.7001 105.3 54.9001C105.1 54.9001 105 55.1001 105.1 55.3001C105.1 55.4001 105.2 55.5001 105.4 55.5001Z" fill="white"/>
<path d="M106.8 61.4002H106.9L123.7 54.2002C123.8 54.1002 123.9 54.0002 123.9 53.9002C123.9 53.8002 123.7 53.7002 123.6 53.7002L105.4 55.5002C105.2 55.5002 105.1 55.7002 105.1 55.8002C105.1 56.0002 105.3 56.1002 105.4 56.1002L121.7 54.5002L106.7 61.0002C106.6 61.1002 106.5 61.2002 106.5 61.4002C106.6 61.3002 106.7 61.4002 106.8 61.4002Z" fill="white"/>
<path d="M106.3 58.7998C106.4 58.7998 106.4 58.7998 106.3 58.7998L123.7 54.1998C123.9 54.1998 124 53.9998 123.9 53.7998C123.9 53.5998 123.7 53.4998 123.5 53.5998L106.2 58.1998C106 58.1998 105.9 58.3998 106 58.5998C106.1 58.6998 106.2 58.7998 106.3 58.7998Z" fill="white"/>
<path d="M109.4 70.9002C113.1 70.9002 115.8 69.5002 118.9 67.7002C119.9 67.1002 120.7 66.6002 121.5 66.0002C123.6 64.5002 125.3 63.3002 128.3 63.5002C132.3 63.7002 135.5 66.9002 135.6 67.0002C135.7 67.1002 135.9 67.1002 136 67.0002C136.1 66.9002 136.2 66.7002 136.1 66.6002C136.1 66.5002 132.1 59.8002 124.7 59.7002C124.7 59.7002 124.7 59.7002 124.6 59.7002C122.1 59.7002 120.3 60.6002 118.5 61.4002C116.9 62.2002 115.4 62.9002 113.5 62.9002C110.1 63.0002 108 61.5002 107.3 60.8002C107.2 60.7002 107 60.7002 106.9 60.8002C106.8 60.9002 106.8 61.1002 106.9 61.2002C107.9 62.1002 110.1 63.5002 113.6 63.4002C115.6 63.3002 117.2 62.6002 118.8 61.8002C120.5 61.0002 122.3 60.1002 124.6 60.1002C124.6 60.1002 124.6 60.1002 124.7 60.1002C129.4 60.1002 132.6 62.9002 134.3 64.8002C132.9 63.8002 130.8 62.8002 128.5 62.6002C125.4 62.4002 123.5 63.7002 121.4 65.2002C120.6 65.7002 119.8 66.3002 118.9 66.9002C115.4 68.9002 112.3 70.5002 107.8 69.9002C107.7 69.9002 107.5 70.0002 107.5 70.2002C107.5 70.4002 107.6 70.5002 107.8 70.5002C108.1 70.9002 108.8 70.9002 109.4 70.9002Z" fill="white"/>
<path d="M106.5 76.8006L124.8 76.5006C124.9 76.5006 125.1 76.4006 125.1 76.2006C125.1 76.1006 125 75.9006 124.9 75.9006L107.4 70.6006C107.2 70.6006 107.1 70.6006 107 70.8006C107 71.0006 107 71.1006 107.2 71.2006L122.9 76.0006L106.5 76.2006C106.3 76.2006 106.2 76.3006 106.2 76.5006C106.2 76.6006 106.4 76.8006 106.5 76.8006Z" fill="white"/>
<path d="M124.8 76.5006C124.9 76.5006 125.1 76.4006 125.1 76.2006C125.1 76.0006 125 75.9006 124.8 75.9006L107.1 73.6006C106.9 73.6006 106.8 73.7006 106.8 73.9006C106.8 74.1006 106.9 74.2006 107.1 74.2006L124.8 76.5006Z" fill="white"/>
<path d="M131 93.0998C131.2 93.0998 131.3 92.8998 131.3 92.7998C131.3 92.6998 130.2 84.9998 123.4 82.0998C121.1 81.0998 119 81.1998 117.1 81.2998C115.3 81.3998 113.7 81.4998 111.9 80.7998C108.7 79.5998 107.4 77.3998 106.9 76.4998C106.8 76.3998 106.7 76.2998 106.5 76.3998C106.4 76.4998 106.3 76.5998 106.4 76.7998C107 77.9998 108.4 80.1998 111.7 81.3998C113.6 82.0998 115.4 81.9998 117.1 81.8998C119 81.7998 121 81.6998 123.2 82.5998C127.5 84.3998 129.4 88.1998 130.2 90.6998C129.3 89.2998 127.8 87.4998 125.6 86.4998C122.7 85.1998 120.6 85.5998 118 86.1998C117.1 86.3998 116.1 86.5998 115 86.7998C111 87.2998 107.6 87.5998 103.6 85.2998C103.5 85.1998 103.3 85.2998 103.2 85.3998C103.1 85.4998 103.2 85.6998 103.3 85.7998C107.4 88.1998 111 87.8998 115.1 87.3998C116.2 87.2998 117.2 86.9998 118.1 86.7998C120.6 86.1998 122.6 85.7998 125.3 87.0998C128.9 88.7998 130.7 92.9998 130.7 93.0998C130.8 92.9998 130.9 93.0998 131 93.0998Z" fill="white"/>
<path d="M117.3 97.5998C117.4 97.5998 117.5 97.4998 117.6 97.4998C117.7 97.3998 117.6 97.1998 117.5 97.0998L103.4 85.4998C103.3 85.3998 103.1 85.3998 103 85.4998C102.9 85.5998 102.9 85.7998 103 85.8998L115.7 96.2998L100.5 90.2998C100.4 90.1998 100.2 90.2998 100.1 90.4998C100 90.6998 100.1 90.7998 100.3 90.8998L117.3 97.5998Z" fill="white"/>
<path d="M117.301 97.6C117.401 97.6 117.501 97.5 117.601 97.5C117.701 97.4 117.601 97.2 117.501 97.1L102.001 88.1C101.901 88 101.701 88.1 101.601 88.2C101.501 88.3 101.601 88.5 101.701 88.6L117.201 97.5C117.201 97.6 117.301 97.6 117.301 97.6Z" fill="white"/>
<path d="M116.701 115.299C116.801 115.299 116.901 115.199 117.001 115.099C117.001 114.999 119.001 107.399 113.801 102.099C112.001 100.299 110.101 99.5994 108.201 98.9994C106.501 98.3994 105.001 97.8994 103.601 96.5994C101.101 94.2994 100.701 91.6994 100.701 90.6994C100.701 90.4994 100.601 90.3994 100.401 90.3994C100.201 90.3994 100.101 90.4994 100.101 90.6994C100.201 91.7994 100.601 94.4994 103.201 96.9994C104.701 98.3994 106.401 98.9994 108.001 99.5994C109.801 100.199 111.701 100.899 113.301 102.599C116.601 105.899 116.901 110.199 116.701 112.699C116.401 110.999 115.701 108.799 114.101 107.099C112.001 104.799 109.801 104.399 107.201 103.899C106.301 103.699 105.301 103.599 104.201 103.299C100.301 102.299 97.0006 101.199 94.2006 97.4994C94.1006 97.3994 93.9006 97.2994 93.8006 97.3994C93.7006 97.4994 93.6006 97.6994 93.7006 97.7994C96.6006 101.599 99.9006 102.699 104.001 103.799C105.101 104.099 106.101 104.299 107.001 104.399C109.601 104.899 111.601 105.199 113.601 107.399C116.301 110.299 116.301 114.899 116.301 114.999C116.401 115.199 116.601 115.299 116.701 115.299Z" fill="white"/>
<path d="M102.4 114.199C102.5 114.199 102.5 114.199 102.6 114.099C102.7 113.999 102.8 113.899 102.7 113.699L94.0004 97.699C93.9004 97.599 93.7004 97.499 93.6004 97.599C93.5004 97.699 93.4004 97.899 93.5004 97.999L101.2 112.399L89.5004 100.999C89.4004 100.899 89.2004 100.899 89.1004 100.999C89.0004 101.099 89.0004 101.299 89.1004 101.399L102.2 114.099C102.2 114.199 102.3 114.199 102.4 114.199Z" fill="white"/>
<path d="M102.401 114.199C102.501 114.199 102.501 114.199 102.601 114.099C102.701 113.999 102.801 113.799 102.701 113.699L91.7006 99.5994C91.6006 99.4994 91.4006 99.3994 91.3006 99.4994C91.2006 99.5994 91.1006 99.7994 91.2006 99.8994L102.101 114.099C102.201 114.199 102.301 114.199 102.401 114.199Z" fill="white"/>
<path d="M95.0003 130.4C95.1003 130.4 95.2003 130.4 95.2003 130.3C95.2003 130.2 100 124 97.2003 117.1C96.3003 114.8 94.7003 113.4 93.3003 112.1C92.0003 110.9 90.7003 109.8 90.0003 108.1C88.6003 105 89.2003 102.5 89.5003 101.5C89.6003 101.3 89.5003 101.2 89.3003 101.1C89.1003 101 89.0003 101.1 88.9003 101.3C88.5003 102.3 87.9003 105 89.4003 108.3C90.2003 110.1 91.6003 111.3 92.9003 112.5C94.3003 113.8 95.8003 115.1 96.7003 117.3C98.5003 121.6 97.1003 125.7 96.0003 128C96.3003 126.3 96.6003 124 95.8003 121.8C94.7003 118.8 92.8003 117.6 90.7003 116.2C89.9003 115.7 89.1003 115.2 88.2003 114.5C85.0003 112 82.4003 109.8 81.2003 105.4C81.2003 105.2 81.0003 105.2 80.8003 105.2C80.6003 105.2 80.5003 105.4 80.6003 105.6C81.8003 110.2 84.5003 112.5 87.8003 115.1C88.7003 115.8 89.5003 116.3 90.3003 116.8C92.5003 118.2 94.2003 119.3 95.2003 122.1C96.5003 125.8 94.8003 130.1 94.8003 130.1C94.7003 130.2 94.8003 130.4 94.9003 130.5C94.9003 130.4 95.0003 130.4 95.0003 130.4Z" fill="white"/>
<path d="M82.2001 123.9C82.4001 123.9 82.5001 123.7 82.5001 123.6L80.7001 105.4C80.7001 105.2 80.5001 105.1 80.4001 105.1C80.2001 105.1 80.1001 105.3 80.1001 105.4L81.7001 121.7L75.2001 106.6C75.1001 106.4 75.0001 106.4 74.8001 106.4C74.7001 106.5 74.6001 106.6 74.6001 106.8L81.8001 123.6C81.9001 123.8 82.1001 123.9 82.2001 123.9Z" fill="white"/>
<path d="M82.2 123.9C82.4 123.8 82.5 123.7 82.5 123.5L77.9 106.2C77.9 106 77.7 106 77.5 106C77.3 106 77.2 106.2 77.3 106.4L81.9 123.7C81.9 123.8 82 123.9 82.2 123.9Z" fill="white"/>
<path d="M69.2001 136H69.3001C69.4001 136 76.1001 132 76.2001 124.6C76.2001 122.1 75.3001 120.3 74.5001 118.5C73.7001 116.9 73.0001 115.4 73.0001 113.5C72.9001 110.1 74.4001 108 75.1001 107.3C75.2001 107.2 75.2001 107 75.1001 106.9C75.0001 106.8 74.8001 106.8 74.7001 106.9C74.0001 107.7 72.3001 110 72.5001 113.6C72.6001 115.6 73.3001 117.2 74.1001 118.8C74.9001 120.5 75.8001 122.3 75.8001 124.7C75.8001 129.4 73.0001 132.6 71.1001 134.3C72.1001 132.9 73.1001 130.8 73.3001 128.5C73.4001 125.3 72.2001 123.5 70.7001 121.4C70.2001 120.6 69.6001 119.8 69.0001 118.9C67.0001 115.4 65.4001 112.3 66.0001 107.8C66.0001 107.6 65.9001 107.5 65.7001 107.5C65.5001 107.5 65.4001 107.6 65.4001 107.8C64.8001 112.5 66.3001 115.7 68.5001 119.3C69.1001 120.3 69.6001 121.1 70.2001 121.9C71.7001 124 72.9001 125.7 72.7001 128.7C72.5001 132.7 69.3001 135.9 69.2001 136C69.1001 136.1 69.1001 136.3 69.2001 136.4C69.0001 136 69.1001 136 69.2001 136Z" fill="white"/>
<path d="M59.8002 125.1C59.9002 125.1 60.0002 125 60.1002 124.9L65.4002 107.4C65.4002 107.2 65.4002 107.1 65.2002 107C65.0002 107 64.9002 107 64.8002 107.2L60.0002 122.9L59.8002 106.5C59.8002 106.3 59.7002 106.2 59.5002 106.2C59.3002 106.2 59.2002 106.3 59.2002 106.5L59.5002 124.8C59.5002 124.9 59.6002 125.1 59.8002 125.1Z" fill="white"/>
<path d="M59.8 125.1C59.9 125.1 60.1 125 60.1 124.8L62.4 107.1C62.4 106.9 62.3 106.8 62.1 106.8C61.9 106.8 61.8 106.9 61.8 107.1L59.5 124.8C59.5 124.9 59.6 125.1 59.8 125.1Z" fill="white"/>
<path d="M43.2004 131.3C43.3004 131.3 51.1004 130.2 54.0004 123.4C55.0004 121.1 54.9004 119 54.8004 117.1C54.7004 115.3 54.6004 113.7 55.3004 111.9C56.5004 108.7 58.7004 107.4 59.6004 106.9C59.7004 106.8 59.8004 106.7 59.7004 106.5C59.6004 106.4 59.5004 106.3 59.3004 106.4C58.3004 106.9 56.0004 108.3 54.7004 111.7C54.0004 113.6 54.1004 115.4 54.2004 117.1C54.3004 119 54.4004 121 53.5004 123.2C51.7004 127.5 47.9004 129.4 45.5004 130.2C46.9004 129.3 48.7004 127.8 49.7004 125.6C51.0004 122.7 50.6004 120.6 50.0004 118C49.8004 117.1 49.6004 116.1 49.4004 115C48.9004 111 48.6004 107.6 50.9004 103.6C51.0004 103.5 50.9004 103.3 50.8004 103.2C50.7004 103.1 50.5004 103.2 50.4004 103.3C48.0004 107.4 48.3004 110.9 48.8004 115.1C48.9004 116.2 49.2004 117.2 49.4004 118.1C50.0004 120.6 50.4004 122.6 49.1004 125.3C47.4004 128.9 43.2004 130.7 43.1004 130.7C43.0004 130.8 42.9004 130.9 42.9004 131C43.0004 131.2 43.1004 131.3 43.2004 131.3Z" fill="white"/>
<path d="M38.7004 117.6C38.8004 117.6 38.9004 117.6 38.9004 117.5L50.5004 103.4C50.6004 103.3 50.6004 103.1 50.5004 103C50.4004 102.9 50.2004 102.9 50.1004 103L39.7004 115.7L45.8004 100.5C45.9004 100.3 45.8004 100.2 45.6004 100.1C45.5004 99.9998 45.3004 100.1 45.2004 100.3L38.5004 117.3C38.4004 117.4 38.5004 117.6 38.6004 117.7C38.6004 117.6 38.6004 117.6 38.7004 117.6Z" fill="white"/>
<path d="M38.7004 117.6C38.8004 117.6 38.9004 117.5 39.0004 117.5L47.9004 102C48.0004 101.9 47.9004 101.7 47.8004 101.6C47.7004 101.5 47.5004 101.6 47.4004 101.7L38.5004 117.2C38.4004 117.3 38.5004 117.5 38.6004 117.6C38.6004 117.6 38.6004 117.6 38.7004 117.6Z" fill="white"/>
<path d="M24.4001 117.4C27.1001 117.4 30.8001 116.8 33.8001 113.8C35.6001 112 36.3001 110.1 36.9001 108.2C37.5001 106.5 38.0001 105 39.3001 103.6C41.6001 101.1 44.2001 100.7 45.2001 100.7C45.4001 100.7 45.5001 100.6 45.5001 100.4C45.5001 100.2 45.4001 100.1 45.2001 100.1C43.9001 100.2 41.3001 100.7 38.9001 103.2C37.5001 104.7 36.9001 106.4 36.3001 108C35.7001 109.8 35.0001 111.7 33.3001 113.3C30.0001 116.6 25.7001 116.9 23.2001 116.7C24.9001 116.4 27.1001 115.7 28.8001 114.1C31.1001 112 31.5001 109.8 32.0001 107.2C32.2001 106.3 32.3001 105.3 32.6001 104.2C33.6001 100.3 34.7001 96.9996 38.4001 94.1996C38.5001 94.0996 38.6001 93.8996 38.5001 93.7996C38.4001 93.6996 38.2001 93.5996 38.1001 93.6996C34.3001 96.5996 33.2001 99.8996 32.1001 104C31.8001 105.1 31.6001 106.1 31.5001 107C31.0001 109.6 30.7001 111.6 28.5001 113.6C25.6001 116.3 21.0001 116.3 20.9001 116.3C20.8001 116.3 20.6001 116.4 20.6001 116.6C20.6001 116.7 20.7001 116.9 20.8001 116.9C20.9001 117 22.4001 117.4 24.4001 117.4Z" fill="white"/>
<path d="M22.0002 102.699H22.1002L38.3002 93.9994C38.4002 93.8994 38.5002 93.6994 38.4002 93.5994C38.3002 93.4994 38.1002 93.3994 38.0002 93.4994L23.6002 101.199L35.0002 89.4994C35.1002 89.3994 35.1002 89.1994 35.0002 89.0994C34.9002 88.9994 34.7002 88.9994 34.6002 89.0994L21.9002 102.199C21.8002 102.299 21.8002 102.499 21.9002 102.599L22.0002 102.699Z" fill="white"/>
<path d="M22.0002 102.7C22.1002 102.7 22.1002 102.7 22.2002 102.6L36.4002 91.6996C36.5002 91.5996 36.6002 91.3996 36.5002 91.2996C36.4002 91.1996 36.2002 91.0996 36.1002 91.1996L21.9002 102.1C21.8002 102.2 21.7002 102.4 21.8002 102.5C21.9002 102.6 22.0002 102.7 22.0002 102.7Z" fill="white"/>
<path d="M14.4 98.1C15.8 98.1 17.4 97.9 19 97.2C21.3 96.3 22.7 94.7 24 93.3C25.2 92 26.3 90.7 28 90C31.1 88.6 33.6 89.2 34.6 89.5C34.8 89.6 34.9 89.5 35 89.3C35.1 89.1 35 89 34.8 88.9C33.8 88.6 31.1 87.9 27.8 89.4C26 90.2 24.8 91.6 23.6 92.9C22.3 94.3 21 95.8 18.8 96.7C14.5 98.5 10.4 97.1 8.10002 96C9.80002 96.3 12.1 96.6 14.3 95.8C17.3 94.7 18.5 92.8 19.9 90.6C20.4 89.8 20.9 89 21.6 88.1C24.1 84.9 26.3 82.3 30.7 81.1C30.9 81.1 31 80.9 30.9 80.7C30.9 80.5 30.7 80.5 30.5 80.5C25.9 81.7 23.6 84.4 21 87.7C20.3 88.6 19.8 89.4 19.3 90.2C17.9 92.4 16.8 94.1 14 95.1C10.3 96.4 6.00002 94.7 6.00002 94.7C5.90002 94.6 5.70002 94.7 5.60002 94.8C5.50002 94.9 5.60002 95.1 5.70002 95.2C5.80002 95.3 9.50001 98.1 14.4 98.1Z" fill="white"/>
<path d="M12.4001 82.4996L30.6001 80.6996C30.8001 80.6996 30.9001 80.4996 30.9001 80.3996C30.9001 80.1996 30.7001 80.0996 30.6001 80.0996L14.3001 81.6996L29.3001 75.1996C29.4001 75.0996 29.5001 74.9996 29.5001 74.7996C29.4001 74.6996 29.3001 74.5996 29.1001 74.5996L12.3001 81.7996C12.2001 81.8996 12.1001 81.9996 12.1001 82.0996C12.1001 82.3996 12.3001 82.4996 12.4001 82.4996Z" fill="white"/>
<path d="M12.3998 82.4998L29.7998 77.8998C29.9998 77.8998 30.0998 77.6998 29.9998 77.4998C29.9998 77.2998 29.7998 77.2998 29.5998 77.2998L12.2998 81.8998C12.0998 81.8998 11.9998 82.0998 12.0998 82.2998C12.0998 82.3998 12.2998 82.4998 12.3998 82.4998Z" fill="white"/>
<path d="M11.5002 76.2005C14.0002 76.2005 15.8002 75.3006 17.6002 74.5006C19.2002 73.7006 20.7002 73.0006 22.6002 73.0006C26.0002 72.9006 28.1002 74.4006 28.8002 75.1006C28.9002 75.2006 29.1002 75.2006 29.2002 75.1006C29.3002 75.0006 29.3002 74.8005 29.2002 74.7005C28.4002 74.0005 26.2002 72.4006 22.5002 72.5006C20.5002 72.6006 18.9002 73.3006 17.3002 74.1006C15.6002 74.9006 13.8002 75.8006 11.5002 75.8006C11.5002 75.8006 11.5002 75.8006 11.4002 75.8006C6.7002 75.8006 3.5002 73.0006 1.8002 71.1006C3.2002 72.1006 5.3002 73.1006 7.6002 73.3006C10.8002 73.5006 12.6002 72.2005 14.7002 70.7005C15.5002 70.2005 16.3002 69.6006 17.2002 69.0006C20.7002 67.0006 23.8002 65.4006 28.3002 66.0006C28.5002 66.0006 28.6002 65.9005 28.6002 65.7005C28.6002 65.5005 28.5002 65.4006 28.3002 65.4006C23.6002 64.8006 20.4002 66.3006 16.8002 68.5006C15.8002 69.1006 15.0002 69.6005 14.2002 70.2005C12.1002 71.7005 10.4002 72.9005 7.4002 72.7005C3.4002 72.5005 0.200195 69.3005 0.100195 69.2005C0.000195324 69.1005 -0.199805 69.1005 -0.299805 69.2005C0.000195324 69.1005 0.000195324 69.2006 0.000195324 69.4006C0.100195 69.4006 4.0002 76.2005 11.5002 76.2005Z" fill="white"/>
<path d="M28.7004 65.4002C28.8004 65.4002 28.9004 65.3002 29.0004 65.2002C29.0004 65.0002 29.0004 64.9002 28.8004 64.8002L13.1004 60.0002L29.5004 59.8002C29.7004 59.8002 29.8004 59.7002 29.8004 59.5002C29.8004 59.3002 29.7004 59.2002 29.5004 59.2002L11.2004 59.5002C11.1004 59.5002 10.9004 59.6002 10.9004 59.8002C10.9004 59.9002 11.0004 60.1002 11.1004 60.1002L28.7004 65.4002Z" fill="white"/>
<path d="M28.9004 62.4C29.0004 62.4 29.2004 62.3 29.2004 62.1C29.2004 61.9 29.1004 61.8 28.9004 61.8L11.2004 59.5C11.0004 59.5 10.9004 59.6 10.9004 59.8C10.9004 60 11.0004 60.1 11.2004 60.1L28.9004 62.4Z" fill="white"/>
<path d="M29.4002 59.6994H29.5002C29.6002 59.5994 29.7002 59.4994 29.6002 59.2994C29.0002 58.0994 27.6002 55.8994 24.3002 54.6994C22.4002 53.9994 20.6002 54.0994 18.9002 54.1994C17.0002 54.2994 15.0002 54.3994 12.8002 53.4994C8.5002 51.6994 6.6002 47.8994 5.8002 45.4994C6.7002 46.8994 8.2002 48.6994 10.4002 49.6994C13.3002 50.9994 15.4002 50.5994 18.0002 49.9994C18.9002 49.7994 19.9002 49.5994 21.0002 49.3994C25.0002 48.8994 28.4002 48.5994 32.4002 50.8994C32.5002 50.9994 32.7002 50.8994 32.8002 50.7994C32.9002 50.6994 32.8002 50.4994 32.7002 50.3994C28.6002 47.9994 25.0002 48.2994 20.9002 48.7994C19.8002 48.8994 18.8002 49.1994 17.9002 49.3994C15.4002 49.9994 13.4002 50.3994 10.7002 49.0994C7.1002 47.3994 5.3002 43.1994 5.3002 43.0994C5.2002 42.9994 5.0002 42.8994 4.9002 42.8994C4.8002 42.8994 4.7002 43.0994 4.7002 43.1994C4.7002 43.2994 5.8002 50.9994 12.6002 53.8994C14.9002 54.8994 16.9002 54.7994 18.9002 54.6994C20.7002 54.5994 22.3002 54.4994 24.1002 55.1994C27.3002 56.3994 28.6002 58.5994 29.1002 59.4994C29.2002 59.6994 29.3002 59.6994 29.4002 59.6994Z" fill="white"/>
<path d="M32.8002 50.5998C32.9002 50.5998 33.0002 50.5998 33.0002 50.4998C33.1002 50.3998 33.1002 50.1998 33.0002 50.0998L20.3002 39.6998L35.5002 45.6998C35.6002 45.7998 35.8002 45.6998 35.9002 45.4998C36.0002 45.2998 35.9002 45.1998 35.7002 45.0998L18.7002 38.3998C18.6002 38.2998 18.4002 38.3998 18.3002 38.4998C18.2002 38.5998 18.3002 38.7998 18.4002 38.8998L32.5002 50.4998C32.6002 50.5998 32.7002 50.5998 32.8002 50.5998Z" fill="white"/>
<path d="M34.2004 47.8994C34.3004 47.8994 34.4004 47.7994 34.5004 47.7994C34.6004 47.6994 34.5004 47.4994 34.4004 47.3994L18.9004 38.4994C18.8004 38.3994 18.6004 38.4994 18.5004 38.5994C18.4004 38.6994 18.5004 38.8994 18.6004 38.9994L34.0004 47.8994C34.1004 47.8994 34.1004 47.8994 34.2004 47.8994Z" fill="white"/>
<path d="M35.6002 45.6002C35.8002 45.6002 35.9002 45.5002 35.9002 45.3002C35.8002 44.2002 35.4002 41.5002 32.8002 39.0002C31.3002 37.6002 29.6002 37.0002 28.0002 36.4002C26.2002 35.8002 24.3002 35.1002 22.7002 33.4002C19.4002 30.1002 19.1002 25.8002 19.3002 23.3002C19.6002 25.0002 20.3002 27.2002 21.9002 28.9002C24.0002 31.2002 26.2002 31.6002 28.8002 32.1002C29.7002 32.3002 30.7002 32.4002 31.8002 32.7002C35.7002 33.7002 39.0002 34.8002 41.8002 38.5002C41.9002 38.6002 42.1002 38.7002 42.2002 38.6002C42.3002 38.5002 42.4002 38.3002 42.3002 38.2002C39.4002 34.4002 36.1002 33.3002 32.0002 32.2002C30.9002 31.9002 29.9002 31.7002 29.0002 31.6002C26.4002 31.1002 24.4002 30.8002 22.4002 28.6002C19.7002 25.7002 19.7002 21.1002 19.7002 21.0002C19.7002 20.9002 19.6002 20.7002 19.4002 20.7002C19.2002 20.7002 19.1002 20.8002 19.1002 20.9002C19.1002 21.0002 17.1002 28.6002 22.3002 33.9002C24.1002 35.7002 26.0002 36.4002 27.9002 37.0002C29.6002 37.6002 31.1002 38.1002 32.5002 39.4002C35.0002 41.7002 35.4002 44.3002 35.4002 45.3002C35.3002 45.5002 35.5002 45.6002 35.6002 45.6002Z" fill="white"/>
<path d="M42.2002 38.4006H42.3002C42.4002 38.3006 42.5002 38.1006 42.4002 38.0006L34.7002 23.6006L46.5002 35.0006C46.6002 35.1006 46.8002 35.1006 46.9002 35.0006C47.0002 34.9006 47.0002 34.7006 46.9002 34.6006L33.8002 21.8006C33.7002 21.7006 33.5002 21.7006 33.4002 21.8006C33.3002 21.9006 33.2002 22.0006 33.3002 22.2006L42.0002 38.3006C42.0002 38.4006 42.1002 38.4006 42.2002 38.4006Z" fill="white"/>
<path d="M44.5003 36.5002C44.6003 36.5002 44.6003 36.5002 44.7003 36.4002C44.8003 36.3002 44.9003 36.1002 44.8003 36.0002L33.9003 21.9002C33.8003 21.8002 33.6003 21.7002 33.5003 21.8002C33.4003 21.9002 33.3003 22.1002 33.4003 22.2002L44.3003 36.4002C44.4003 36.5002 44.4003 36.5002 44.5003 36.5002Z" fill="white"/>
<path d="M46.8003 34.8994C46.9003 34.8994 47.0003 34.7994 47.1003 34.6994C47.5003 33.3994 48.0003 30.8994 46.6003 27.6994C45.8003 25.8994 44.4003 24.6994 43.1003 23.4994C41.7003 22.1994 40.2003 20.8994 39.3003 18.6994C37.5003 14.3994 38.9003 10.2994 40.0003 7.99943C39.7003 9.69943 39.4003 11.9994 40.2003 14.1994C41.3003 17.1994 43.2003 18.3994 45.4003 19.7994C46.2003 20.2994 47.0003 20.7994 47.9003 21.4994C51.1003 23.9994 53.7003 26.1994 54.9003 30.5994C54.9003 30.7994 55.1003 30.8994 55.3003 30.7994C55.5003 30.7994 55.6003 30.5994 55.5003 30.3994C54.3003 25.7994 51.6003 23.4994 48.3003 20.8994C47.4003 20.1994 46.6003 19.6994 45.8003 19.1994C43.6003 17.7994 41.9003 16.6994 40.9003 13.8994C39.6003 10.1994 41.3003 5.89943 41.3003 5.89943C41.4003 5.79943 41.3003 5.59943 41.2003 5.49943C41.1003 5.39943 40.9003 5.49943 40.8003 5.59943C40.8003 5.69943 36.0003 11.8994 38.8003 18.7994C39.7003 21.0994 41.3003 22.4994 42.7003 23.7994C44.0003 24.9994 45.3003 26.0994 46.0003 27.7994C47.4003 30.8994 46.8003 33.3994 46.5003 34.3994C46.4003 34.6994 46.5003 34.8994 46.8003 34.8994C46.7003 34.8994 46.7003 34.8994 46.8003 34.8994Z" fill="white"/>
<path d="M55.6002 30.8996C55.8002 30.8996 55.9002 30.6996 55.9002 30.5996L54.3002 14.2996L60.8002 29.2996C60.9002 29.3996 61.0002 29.4996 61.2002 29.4996C61.3002 29.3996 61.4002 29.2996 61.4002 29.0996L54.2002 12.2996C54.1002 12.1996 54.0002 12.0996 53.9002 12.0996C53.8002 12.0996 53.7002 12.2996 53.7002 12.3996L55.5002 30.5996C55.3002 30.6996 55.5002 30.8996 55.6002 30.8996Z" fill="white"/>
<path d="M58.5003 29.9996C58.7003 29.8996 58.8003 29.7996 58.8003 29.5996L54.2003 12.2996C54.2003 12.0996 54.0003 12.0996 53.8003 12.0996C53.6003 12.0996 53.5003 12.2996 53.6003 12.4996L58.2003 29.7996C58.2003 29.8996 58.3003 29.9996 58.5003 29.9996Z" fill="white"/>
<path d="M66.2003 28.8999C66.3003 28.8999 66.4003 28.7999 66.5003 28.6999C68.3003 24.2999 66.4003 20.6999 64.6003 17.2999C63.8003 15.6999 63.0003 14.1999 62.5003 12.6999C60.4003 5.69987 66.9003 0.599865 67.0003 0.599865C67.1003 0.499865 67.2003 0.299865 67.1003 0.199865C66.9003 -0.000134885 66.7003 -0.000134885 66.6003 0.0998651C66.5003 0.199865 59.7003 5.49987 61.9003 12.8999C62.4003 14.4999 63.2003 16.0999 64.0003 17.5999C65.7003 20.8999 67.6003 24.2999 65.9003 28.4999C65.8003 28.6999 65.9003 28.7999 66.1003 28.8999H66.2003Z" fill="white"/>
<path d="M94.6006 39.2003H94.7006C99.1006 37.3003 100.301 33.5003 101.401 29.8003C101.901 28.1003 102.401 26.5003 103.201 25.0003C106.701 18.5003 114.901 19.5003 115.001 19.6003C115.201 19.6003 115.301 19.5003 115.301 19.3003C115.301 19.1003 115.201 19.0003 115.001 19.0003C114.901 19.0003 106.401 17.9003 102.601 24.7003C101.801 26.2003 101.301 27.9003 100.701 29.6003C99.6006 33.2003 98.5006 36.9003 94.3006 38.6003C94.2006 38.7003 94.1006 38.8003 94.1006 39.0003C94.4006 39.1003 94.5006 39.2003 94.6006 39.2003Z" fill="white"/>
<path d="M110.8 67.3C113.7 67.3 116.2 66 118.6 64.7C120.2 63.9 121.7 63.1 123.2 62.6C130.3 60.5 135.3 67 135.4 67.1C135.5 67.2 135.7 67.3 135.8 67.2C135.9 67.1 136 66.9 135.9 66.8C135.8 66.7 130.5 59.9 123.1 62.1C121.5 62.6 119.9 63.4 118.4 64.2C115.1 65.9 111.7 67.8 107.5 66.1C107.4 66 107.2 66.1 107.1 66.3C107 66.5 107.1 66.6 107.3 66.7C108.5 67.1 109.7 67.3 110.8 67.3Z" fill="white"/>
<path d="M116.7 115.3C116.8 115.3 117 115.2 117 115C117 114.9 118.1 106.4 111.3 102.6C109.8 101.8 108.1 101.3 106.4 100.7C102.8 99.5996 99.1003 98.4996 97.4003 94.2996C97.3003 94.0996 97.2003 94.0996 97.0003 94.0996C96.9003 94.1996 96.8003 94.2996 96.8003 94.4996C98.7003 98.8996 102.5 100.1 106.2 101.2C107.9 101.7 109.5 102.2 111 103C117.4 106.5 116.5 114.7 116.4 114.8C116.3 115.2 116.5 115.3 116.7 115.3C116.6 115.3 116.6 115.3 116.7 115.3Z" fill="white"/>
<path d="M69.2003 136C69.3003 136 69.3003 136 69.4003 135.9C69.5003 135.8 76.3003 130.5 74.1003 123.1C73.6003 121.5 72.8003 119.9 72.0003 118.4C70.3003 115.1 68.4003 111.7 70.1003 107.5C70.2003 107.3 70.1003 107.2 69.9003 107.1C69.8003 107 69.6003 107.1 69.5003 107.3C67.7003 111.7 69.6003 115.3 71.4003 118.7C72.2003 120.3 73.0003 121.8 73.5003 123.3C75.6003 130.4 69.1003 135.4 69.0003 135.5C68.9003 135.6 68.8003 135.8 68.9003 135.9C69.0003 135.9 69.1003 136 69.2003 136Z" fill="white"/>
<path d="M22.3003 117C24.9003 117 30.5003 116.4 33.3003 111.2C34.1003 109.7 34.6003 108 35.2003 106.3C36.3003 102.7 37.4003 99.0002 41.6003 97.3002C41.7003 97.2002 41.8003 97.1002 41.8003 96.9002C41.7003 96.7002 41.6003 96.7002 41.4003 96.7002C37.0003 98.6002 35.8003 102.4 34.7003 106.1C34.2003 107.8 33.7003 109.4 32.9003 110.9C29.4003 117.4 21.2003 116.4 21.1003 116.3C20.9003 116.3 20.8003 116.4 20.8003 116.6C20.8003 116.8 20.9003 116.9 21.1003 116.9C21.0003 117 21.5003 117 22.3003 117Z" fill="white"/>
<path d="M10.0004 74.4998C10.9004 74.4998 11.9004 74.3998 13.0004 74.0998C14.6004 73.5998 16.2004 72.7998 17.7004 71.9998C21.0004 70.2998 24.4004 68.3998 28.6004 70.0998C28.7004 70.1998 28.9004 70.0998 29.0004 69.8998C29.1004 69.6998 29.0004 69.5998 28.8004 69.4998C24.4004 67.6998 20.8004 69.5998 17.4004 71.3998C15.8004 72.1998 14.3004 72.9998 12.8004 73.4998C5.70035 75.4998 0.600353 69.0998 0.600353 68.9998C0.500353 68.8998 0.300353 68.7998 0.200353 68.8998C0.000353396 68.9998 0.000353396 69.1998 0.100353 69.3998C0.200353 69.3998 4.10035 74.4998 10.0004 74.4998Z" fill="white"/>
<path d="M38.9003 41.7998H39.0003C39.1003 41.6998 39.2003 41.5998 39.2003 41.3998C37.3003 36.9998 33.5003 35.7998 29.8003 34.6998C28.1003 34.1998 26.5003 33.6998 25.0003 32.8998C18.6003 29.3998 19.5003 21.1998 19.6003 21.0998C19.6003 20.8998 19.5003 20.7998 19.3003 20.7998C19.1003 20.7998 19.0003 20.8998 19.0003 21.0998C19.0003 21.1998 17.9003 29.6998 24.7003 33.4998C26.2003 34.2998 27.9003 34.7998 29.6003 35.3998C33.2003 36.4998 36.9003 37.5998 38.6003 41.7998C38.7003 41.6998 38.8003 41.7998 38.9003 41.7998Z" fill="white"/>
<path d="M81.4005 31.3002C81.5005 31.3002 81.6005 31.3002 81.6005 31.2002C84.9005 27.8002 84.5005 23.8002 84.2005 19.9002C84.0005 18.1002 83.9005 16.5002 84.1005 14.8002C84.9005 7.5002 92.8005 5.3002 92.9005 5.3002C93.1005 5.3002 93.2005 5.1002 93.1005 4.9002C93.1005 4.7002 92.9005 4.7002 92.7005 4.7002C92.6005 4.7002 84.3005 7.0002 83.5005 14.7002C83.3005 16.4002 83.5005 18.2002 83.6005 19.9002C84.0005 23.6002 84.3005 27.5002 81.2005 30.7002C81.1005 30.8002 81.1005 31.0002 81.2005 31.1002C81.3005 31.2002 81.3005 31.3002 81.4005 31.3002Z" fill="white"/>
<path d="M103.7 51.6007C108.5 51.5007 111 48.4007 113.5 45.5007C114.6 44.1007 115.7 42.8007 117 41.8007C122.7 37.2007 129.9 41.2007 130 41.3007C130.1 41.4007 130.3 41.3007 130.4 41.2007C130.5 41.1007 130.4 40.9007 130.3 40.8007C130.2 40.8007 122.7 36.5007 116.7 41.4007C115.4 42.5007 114.2 43.8007 113.1 45.2007C110.7 48.1007 108.3 51.1007 103.8 51.1007C103.6 51.1007 103.5 51.2007 103.5 51.4007C103.4 51.5007 103.5 51.6007 103.7 51.6007Z" fill="white"/>
<path d="M130.901 93.1C131.001 93.1 131.001 93.1 130.901 93.1C131.101 93 131.201 92.9 131.201 92.7C131.201 92.6 128.901 84.3 121.201 83.5C119.501 83.3 117.701 83.5 116.001 83.6C112.301 84 108.401 84.3 105.201 81.2C105.101 81.1 104.901 81.1 104.801 81.2C104.701 81.3 104.701 81.5 104.801 81.6C108.201 84.9 112.201 84.5 116.101 84.2C117.901 84 119.601 83.9 121.201 84.1C128.501 84.9 130.701 92.8 130.701 92.9C130.701 93.1 130.801 93.1 130.901 93.1Z" fill="white"/>
<path d="M94.9003 130.4C95.0003 130.4 95.1003 130.3 95.2003 130.3C95.2003 130.2 99.5003 122.7 94.6003 116.7C93.5003 115.4 92.2003 114.2 90.8003 113.1C87.9003 110.7 84.9003 108.3 84.9003 103.8C84.9003 103.6 84.8003 103.5 84.6003 103.5C84.4003 103.5 84.3003 103.6 84.3003 103.8C84.4003 108.6 87.5003 111.1 90.4003 113.6C91.8003 114.7 93.1003 115.8 94.1003 117.1C98.7003 122.8 94.7003 130 94.6003 130.1C94.5003 130.2 94.6003 130.4 94.7003 130.5C94.8003 130.4 94.9003 130.4 94.9003 130.4Z" fill="white"/>
<path d="M43.2006 131.301C43.4006 131.301 51.7006 129.001 52.5006 121.201C52.7006 119.501 52.5006 117.701 52.4006 116.001C52.0006 112.301 51.7006 108.401 54.8006 105.201C54.9006 105.101 54.9006 104.901 54.8006 104.801C54.7006 104.701 54.5006 104.701 54.4006 104.801C51.1006 108.201 51.5006 112.201 51.8006 116.101C52.0006 117.901 52.1006 119.501 51.9006 121.201C51.1006 128.501 43.2006 130.701 43.1006 130.701C42.9006 130.701 42.8006 130.901 42.9006 131.101C42.9006 131.201 43.0006 131.301 43.2006 131.301Z" fill="white"/>
<path d="M12.7005 97.0004C14.9005 97.0004 17.2005 96.4004 19.4005 94.7004C20.7005 93.6004 21.9005 92.3004 23.0005 90.9004C25.4005 88.0004 27.8005 85.0004 32.3005 85.0004C32.5005 85.0004 32.6005 84.9004 32.6005 84.7004C32.6005 84.5004 32.5005 84.4004 32.3005 84.4004C27.5005 84.5004 25.0005 87.6004 22.5005 90.5004C21.4005 91.9004 20.3005 93.2004 19.0005 94.2004C13.3005 98.8004 6.1005 94.8004 6.0005 94.7004C5.9005 94.6004 5.7005 94.7004 5.6005 94.8004C5.5005 94.9004 5.6005 95.1004 5.7005 95.2004C5.8005 95.3004 8.9005 97.0004 12.7005 97.0004Z" fill="white"/>
<path d="M31.0004 54.9004C31.1004 54.9004 31.2004 54.9004 31.2004 54.8004C31.3004 54.7004 31.3004 54.5004 31.2004 54.4004C27.8004 51.1004 23.8004 51.5004 19.9004 51.8004C18.1004 52.0004 16.5004 52.1004 14.8004 51.9004C7.50036 51.1004 5.30036 43.2004 5.30036 43.1004C5.30036 42.9004 5.10036 42.9004 4.90036 42.9004C4.70036 42.9004 4.60036 43.1004 4.70036 43.3004C4.70036 43.4004 7.00036 51.7004 14.7004 52.5004C16.4004 52.7004 18.2004 52.5004 19.9004 52.4004C23.6004 52.1004 27.5004 51.7004 30.7004 54.8004C30.8004 54.8004 30.9004 54.9004 31.0004 54.9004Z" fill="white"/>
<path d="M51.3002 32.7006C51.5002 32.7006 51.6002 32.6006 51.6002 32.4006C51.5002 27.6006 48.4002 25.1006 45.5002 22.6006C44.1002 21.5006 42.8002 20.4006 41.8002 19.1006C37.2002 13.4006 41.2002 6.2006 41.3002 6.1006C41.4002 6.0006 41.3002 5.8006 41.2002 5.7006C41.1002 5.6006 40.9002 5.7006 40.8002 5.8006C40.8002 5.9006 36.5002 13.4006 41.4002 19.4006C42.5002 20.7006 43.8002 21.9006 45.2002 23.0006C48.1002 25.4006 51.1002 27.8006 51.1002 32.3006C51.0002 32.6006 51.1002 32.7006 51.3002 32.7006Z" fill="white"/>
</g>
<defs>
<clipPath id="clip0_117_2">
<rect width="136" height="136" fill="white"/>
</clipPath>
</defs>
</svg>
